<?xml version="1.0" encoding="UTF-8"?><svg id="Layout" xmlns="http://www.w3.org/2000/svg" viewBox="0 0 600 400"><defs><style>.cls-1{fill:#0037e6;}.cls-2{fill:#001aae;}.cls-3{fill:#ec9f90;}.cls-4{fill:#ffb0a3;}.cls-5{fill:#fff;}.cls-6{fill:#fcd17d;}.cls-7{fill:#ffa600;}.cls-8{fill:#ffd165;}.cls-9{fill:#7fb2ff;}.cls-10{fill:#abd0ff;}.cls-11{fill:#d9ebff;}.cls-12{fill:#d90000;}.cls-13{fill:#3482ff;}</style></defs><path id="_Group_" class="cls-9" d="m173.91,125.89c4.64,14.04,8.44,28.48,11.36,43.28,3.18,16.05,5.33,32.51,6.46,49.31.36,5.32.63,10.72,1.36,15.91.9,6.36,2.48,12.4,5.77,17.58.68,1.08,2.73,5.15,4.96,9.46.41.79.83,1.59,1.24,2.38,2.63,5.04,5.21,9.72,5.81,9.64,7.96-1.03,9.05-18.17,9.04-20.94-.03-15.26-1.01-30.24-2.93-44.88-.39-3.02-.83-6.02-1.3-9.01,0-.05-.02-.1-.03-.16-1.01-6.33-2.2-12.65-2.98-19.09-.16-1.31-.3-2.62-.42-3.94-.68-7.49-.68-15.17.91-23.26.98-4.95,2.54-10.07,2.1-14.64-.63-6.46-5.16-11.12-7.99-16.59-5.14-9.97-4.57-22.6-7.19-33.8-1.56-6.66-4.26-12.81-6.95-18.94l-9.55-21.77c-.39-.89-2.33-.15-2.42.92-1.41,16.37-3.11,32.85-7.56,49.78-1.18,4.51-2.57,9.08-2.77,13.39-.26,5.57,1.47,10.47,3.08,15.35Z"/><path id="_Group_-2" class="cls-10" d="m158.47,157.29c.97,3.65,1.09,7.37,1.28,11.07.68,13.02,2.33,26,4.94,38.9.28,1.39.57,2.77.87,4.16,1.05,4.82,2.23,9.62,3.55,14.41.04.14.08.29.12.43,1.38,4.87,3.6,10.12,11.65,12.9,1.82.62,3.44-.11,4.83-1.48.61-.6,1.18-1.32,1.7-2.11,2.22-3.33,3.66-7.81,4.2-9.04,2.47-5.58,4.03-11.25,3.18-16.86-.9-5.83-4.35-11.43-5.48-17.24-.99-5.11-.17-10.27.86-15.45,1.1-5.5,2.45-11.01,2.13-16.48-.5-8.59-5.08-16.87-9.63-25.06-2.84-5.11-5.69-10.22-8.65-15.32-4.58-7.89-9.43-15.72-14.97-23.44-1.7-2.36-4.54-5.09-9.78-5.08,0,9.16,0,18.31.02,27.46,0,1.15,0,2.3,0,3.45,0,5.7,0,11.42,1.77,17,1.9,6,5.79,11.75,7.4,17.77Z"/><path id="_Group_-3" class="cls-10" d="m184.95,60.24c0,.23.38,23.4,3.51,49.04,4.21,34.55,11.17,56.92,20.66,66.49.97.97,1.81,2.18,2.51,3.61,2.15,4.33,3.14,10.73,2.98,19.09-.28,14.7-4.13,35.47-11.49,61.72-.11.41-.23.82-.35,1.23.41.79.83,1.59,1.24,2.38.3-1.07.61-2.13.91-3.21,6.02-21.47,9.69-39.16,11.02-52.97,1.53-15.88-.04-26.65-4.73-32.19-.23-.27-.47-.54-.71-.78-22.08-22.25-23.68-113.52-23.69-114.44,0-.46-.43-.83-.94-.82-.51,0-.92.38-.91.84Z"/><path id="_Group_-4" class="cls-9" d="m155.76,107.37c5.7,8.9,11.43,29.93,16.5,53.77,4.01,18.85,7.61,39.45,10.46,57.19,1.13,6.99,2.13,13.53,3,19.35.61-.6,1.18-1.32,1.7-2.11-.87-5.8-1.87-12.25-2.97-19.09-1.12-6.93-2.35-14.26-3.66-21.71-2.08-11.77-4.12-22.45-6.13-32.01-6.09-29.09-11.83-47.94-17.12-56.21-.23-.36-.81-.47-1.3-.24-.49.23-.7.7-.47,1.06Z"/><path class="cls-11" d="m342.14,92.17c-11.77,4.73-22.75,11.31-32.75,19.26-12.27,9.76-39.89,26.12-81.07,19.08-57.29-9.79-119.95,52.03-88.32,145.68,31.63,93.65,305.55,107.12,347.92-3.06,39.56-102.88-29.37-227.78-145.79-180.97Z"/><g><rect id="_Group_-5" class="cls-5" x="236.22" y="101.28" width="125.6" height="246.15" rx="19.5" ry="19.5"/><path class="cls-9" d="m352.57,352.41h-107.11c-7.84,0-14.23-6.38-14.23-14.23V110.53c0-7.84,6.38-14.23,14.23-14.23h107.11c7.84,0,14.23,6.38,14.23,14.23v227.66c0,7.84-6.38,14.23-14.23,14.23Zm-107.11-246.15c-2.35,0-4.27,1.91-4.27,4.27v227.66c0,2.35,1.91,4.27,4.27,4.27h107.11c2.35,0,4.27-1.91,4.27-4.27V110.53c0-2.35-1.91-4.27-4.27-4.27h-107.11Z"/><rect id="_Group_-6" class="cls-9" x="280.32" y="99.91" width="34.69" height="11.06" rx="4.64" ry="4.64"/></g><path id="_Group_-7" class="cls-9" d="m150.33,174.27c3.36,9.85,3.6,19.73,6.24,29.6,2.28,8.52,6.32,16.95,10.11,25.37,8.68,19.26,17.99,41.11,14.33,60.13-1.03,5.38-4.7,9.15-12.55,7.93-.49-.08-.99-.17-1.51-.29-.6-.14-1.23-.29-1.88-.49-10.03-2.92-15.02-11.77-18.35-18.1-3.77-7.19-7.46-14.38-10.97-21.6-2.56-5.27-4.99-10.62-5.41-15.93-.33-4.14.58-8.14.37-12.28-.75-14.54-15.07-28.93-16.88-43.56-.81-6.54.94-12.82.3-19.36-.62-6.34-3.47-12.73-5.61-19.09-4.25-12.6-5.78-25.35-4.51-37.61.11-1.03,1.82-1.39,3.02-.63,2.73,1.73,4.59,4.27,6.21,6.63,6.69,9.76,13.39,19.52,20.08,29.28,6.73,9.81,13.51,19.73,17.02,30.01Z"/><path id="_Group_-8" class="cls-10" d="m109.91,118.37c.21.49,20.95,50.11,39.98,103.8,23.6,66.6,34.33,109.94,31.97,129.05-.67-.07-1.36-.18-2.07-.3,2.46-18.36-8.45-62.47-31.79-128.33-19.01-53.63-39.72-103.18-39.93-103.68-.24-.57-.02-1.16.49-1.31.51-.15,1.12.19,1.35.77Z"/><path id="_Group_-9" class="cls-9" d="m386.51,281.6c2.56-11.62,8.67-21.37,10.41-33.39,1.63-11.33-.68-24.3.49-35.84,1.98-19.6,13.89-34.46,13.64-54.97-.1-8.45-2.29-17.6-2.3-26.02-.01-10.17,3.18-19,8.04-26.6.67-1.05,3.08.08,3.38,1.58,1.65,8.38,2.57,16.58,3.48,24.76,1.45,12.99,2.89,25.98,4.34,38.97,1.2,10.76,2.4,21.63.74,31.28-1.13,6.58-3.58,12.53-4.03,19.41-.75,11.44,4.07,24.99,2.1,35.88-1.6,8.83-7.55,15.26-9.44,23.95-2.8,12.89,3.47,30.13-2.7,41.04-4.1,7.24-14.39,4.68-21.29-4.8-8.66-11.9-8.94-25.73-6.84-35.26Z"/><path id="_Group_-10" class="cls-10" d="m416.97,282.91c4.51-5.17,10.62-9.42,12.77-15.93,1.93-5.83.63-13.28.36-20.2-.89-22.5,9.05-39.65,19.24-56.4,11.45-18.82,23.31-37.43,38.63-53.92.74-.8,4.3,1.18,4.17,2.32l-2.55,22.87c-1.84,16.53-3.68,33.08-8.21,48.24-8.13,27.22-24.88,49.82-30.39,78.4-1.83,9.5-2.51,19.61-5.59,28.47-2.33,6.69-6.32,22.01-20.47,20.67-16.91-1.61-16.96-18.42-17.31-24.43-.68-11.95,2.44-22.17,9.35-30.08Z"/><path id="_Group_-11" class="cls-10" d="m400.68,318.62c.36,0,.69-.32.78-.8,6.91-37.07,11.43-73.57,15.82-110.8,0-.05,0-.11,0-.16v-3.72l.08-.97c.29-3.33.56-6.47.56-9.93,1.45-16.67,2.66-36.24.64-55.06-.06-.57-.46-.97-.91-.89-.44.08-.75.61-.69,1.18,2,18.61.79,38.04-.65,54.59,0,.04,0,.08,0,.12,0,3.37-.27,6.47-.55,9.76l-.09,1.03s0,.08,0,.12v3.69c-4.39,37.16-8.9,73.58-15.79,110.55-.1.56.16,1.13.59,1.27.06.02.13.03.19.03Z"/><path id="_Group_-12" class="cls-9" d="m419.89,332.61c.4,0,.75-.34.8-.79.41-3.98,1.43-7.8,2.42-11.5.86-3.21,1.75-6.52,2.21-9.87,7.54-23.51,16.84-51.35,28.59-79.68,0-.01.01-.03.02-.04.33-.92.58-1.74.82-2.54.24-.81.47-1.57.78-2.42,2.04-4.86,4.06-9.71,6.08-14.54,8.01-19.19,16.29-39.03,24.81-58.37.19-.44.03-.98-.37-1.19-.4-.22-.88-.03-1.08.41-8.53,19.35-16.81,39.2-24.83,58.4-2.02,4.84-4.05,9.69-6.08,14.56,0,.01-.01.03-.02.04-.33.92-.58,1.74-.82,2.54-.24.81-.47,1.57-.78,2.42-11.79,28.42-21.11,56.34-28.66,79.89-.02.05-.03.11-.04.17-.44,3.25-1.28,6.39-2.17,9.71-1.01,3.77-2.05,7.67-2.48,11.8-.05.49.27.93.71.99.03,0,.06,0,.09,0Z"/><g><path class="cls-3" d="m348.66,275.44s-9.89,2.09-11.54,2.98c-1.65.89-2.6,3.77-2.6,3.77l2.62,2.14,5.07-3.13s4.87,1.59,7.37-.42-.92-5.35-.92-5.35Z"/><path class="cls-2" d="m376.39,241.03c-7.28-2.69-7.67,3.07-7.67,3.07,0,0-1.33,11.64-.21,21.15l-19.84,10.2.92,5.35s24.76-2.83,27.23-5.6c2.2-2.46,4.2-20.61,4.61-24.58h0s2.24-6.9-5.04-9.59Z"/></g><g><rect class="cls-6" x="303.11" y="344.99" width="76.54" height="8"/><g><rect class="cls-6" x="311.72" y="337.12" width="76.54" height="8"/><polygon class="cls-7" points="311.72 337.12 388.26 345.12 311.72 345.12 311.72 337.12"/><polygon class="cls-8" points="388.26 337.12 388.26 345.12 311.72 337.12 388.26 337.12"/><rect class="cls-8" x="318.47" y="337.12" width="1.97" height="7.98"/><rect class="cls-8" x="329.05" y="337.12" width="1.97" height="7.98"/><rect class="cls-8" x="340.88" y="337.12" width="1.97" height="7.98"/><rect class="cls-8" x="352.09" y="337.12" width="1.97" height="7.98"/><rect class="cls-8" x="365.16" y="337.12" width="1.97" height="7.98"/><rect class="cls-8" x="377.92" y="337.12" width="1.97" height="7.98"/></g><g><rect class="cls-6" x="303.31" y="344.85" width="76.54" height="8"/><polygon class="cls-7" points="303.31 344.85 379.85 352.85 303.31 352.85 303.31 344.85"/><polygon class="cls-8" points="379.85 344.85 379.85 352.85 303.31 344.85 379.85 344.85"/><rect class="cls-8" x="310.06" y="344.85" width="1.97" height="7.98"/><rect class="cls-8" x="320.64" y="344.85" width="1.97" height="7.98"/><rect class="cls-8" x="332.47" y="344.85" width="1.97" height="7.98"/><rect class="cls-8" x="343.68" y="344.85" width="1.97" height="7.98"/><rect class="cls-8" x="356.76" y="344.85" width="1.97" height="7.98"/><rect class="cls-8" x="369.52" y="344.85" width="1.97" height="7.98"/></g></g><g><circle class="cls-7" cx="323.62" cy="259.45" r="37.94" transform="translate(-77.44 153.64) rotate(-23.94)"/><circle class="cls-8" cx="318.49" cy="260.23" r="37.94"/><path class="cls-7" d="m330.32,290.3c-3.18,1.19-6.56,1.88-10.05,2.03-8.58.35-16.77-2.67-23.08-8.49-6.31-5.82-9.97-13.75-10.32-22.33-.35-8.58,2.67-16.77,8.49-23.08,5.82-6.31,13.75-9.97,22.33-10.32,8.58-.35,16.77,2.67,23.08,8.49,6.31,5.82,9.97,13.75,10.32,22.33.35,8.58-2.67,16.77-8.49,23.08-3.45,3.74-7.64,6.55-12.27,8.29Zm-22.55-59.8c-4.57,1.72-8.71,4.5-12.12,8.19-5.75,6.23-8.73,14.33-8.39,22.8.34,8.47,3.96,16.3,10.19,22.05,6.23,5.75,14.33,8.73,22.8,8.38,8.47-.34,16.3-3.96,22.05-10.19,5.75-6.23,8.73-14.33,8.39-22.8h.2s-.2,0-.2,0c-.34-8.47-3.96-16.3-10.19-22.05-6.23-5.75-14.33-8.73-22.8-8.39-3.45.14-6.79.82-9.93,2Z"/><path class="cls-7" d="m329.9,273.48c-7.7,2.89-14.29.83-18.5-5.05l17.49-6.58-1.56-4.16-18.12,6.81c-.18-.41-.36-.81-.52-1.24-.05-.14-.09-.27-.14-.41l18.78-7.06-1.56-4.16-18.33,6.89c-1.27-8.14,2.74-14.48,10.57-17.42,3.29-1.24,6.32-1.57,8.61-1.36l-.34-4.64c-1.62-.2-5.13-.08-10.07,1.77-10.65,4-15.99,13.22-14.2,23.68l-4.19,1.58,1.56,4.16,3.77-1.42c.07.2.12.39.19.59.14.37.3.71.45,1.07l-4.41,1.66,1.56,4.16,4.89-1.84c5.6,8.89,15.06,11.24,24.62,7.65,4.82-1.81,8.23-4.17,9.76-5.82l-2.58-3.66c-1.68,1.77-4.61,3.61-7.73,4.78Z"/></g><path id="_Group_-13" class="cls-1" d="m431.5,352.96h-31.85c-9.6,0-17.39-11.15-17.39-24.9v-24.9h66.93l-.3,24.9c0,13.75-7.78,24.9-17.39,24.9Z"/><g><rect class="cls-6" x="210.7" y="320.72" width="76.54" height="8"/><rect class="cls-6" x="202.57" y="328.58" width="76.54" height="8"/><rect class="cls-6" x="199.23" y="336.45" width="76.54" height="8"/><rect class="cls-6" x="204.74" y="344.31" width="76.54" height="8"/><g><rect class="cls-6" x="210.66" y="320.44" width="76.54" height="8"/><polygon class="cls-7" points="210.66 320.44 287.2 328.44 210.66 328.44 210.66 320.44"/><polygon class="cls-8" points="287.2 320.44 287.2 328.44 210.66 320.44 287.2 320.44"/><rect class="cls-8" x="217.41" y="320.44" width="1.97" height="7.98"/><rect class="cls-8" x="227.99" y="320.44" width="1.97" height="7.98"/><rect class="cls-8" x="239.82" y="320.44" width="1.97" height="7.98"/><rect class="cls-8" x="251.03" y="320.44" width="1.97" height="7.98"/><rect class="cls-8" x="264.1" y="320.44" width="1.97" height="7.98"/><rect class="cls-8" x="276.87" y="320.44" width="1.97" height="7.98"/></g><g><rect class="cls-6" x="202.57" y="328.58" width="76.54" height="8"/><polygon class="cls-7" points="202.57 328.58 279.11 336.58 202.57 336.58 202.57 328.58"/><polygon class="cls-8" points="279.11 328.58 279.11 336.58 202.57 328.58 279.11 328.58"/><rect class="cls-8" x="209.31" y="328.58" width="1.97" height="7.98"/><rect class="cls-8" x="219.9" y="328.58" width="1.97" height="7.98"/><rect class="cls-8" x="231.73" y="328.58" width="1.97" height="7.98"/><rect class="cls-8" x="242.93" y="328.58" width="1.97" height="7.98"/><rect class="cls-8" x="256.01" y="328.58" width="1.97" height="7.98"/><rect class="cls-8" x="268.77" y="328.58" width="1.97" height="7.98"/></g><g><rect class="cls-6" x="199.23" y="336.72" width="76.54" height="8"/><polygon class="cls-7" points="199.23 336.72 275.77 344.72 199.23 344.72 199.23 336.72"/><polygon class="cls-8" points="275.77 336.72 275.77 344.72 199.23 336.72 275.77 336.72"/><rect class="cls-8" x="205.98" y="336.72" width="1.97" height="7.98"/><rect class="cls-8" x="216.56" y="336.72" width="1.97" height="7.98"/><rect class="cls-8" x="228.39" y="336.72" width="1.97" height="7.98"/><rect class="cls-8" x="239.6" y="336.72" width="1.97" height="7.98"/><rect class="cls-8" x="252.68" y="336.72" width="1.97" height="7.98"/><rect class="cls-8" x="265.44" y="336.72" width="1.97" height="7.98"/></g><g><rect class="cls-6" x="204.74" y="344.77" width="76.54" height="8"/><polygon class="cls-7" points="204.74 344.77 281.28 352.77 204.74 352.77 204.74 344.77"/><polygon class="cls-8" points="281.28 344.77 281.28 352.77 204.74 344.77 281.28 344.77"/><rect class="cls-8" x="211.49" y="344.77" width="1.97" height="7.98"/><rect class="cls-8" x="222.08" y="344.77" width="1.97" height="7.98"/><rect class="cls-8" x="233.91" y="344.77" width="1.97" height="7.98"/><rect class="cls-8" x="245.11" y="344.77" width="1.97" height="7.98"/><rect class="cls-8" x="258.19" y="344.77" width="1.97" height="7.98"/><rect class="cls-8" x="270.95" y="344.77" width="1.97" height="7.98"/></g></g><g><path class="cls-12" d="m377.95,353.95h-15.25c-.63,0-.94-.7-.49-1.1l7.53-6.79-.66-3.16,5.95-.73.93,3.76,2,8.02Z"/><polygon class="cls-3" points="375.95 345.93 369.75 346.05 368.7 341.31 375.12 340.68 375.95 345.93"/><path class="cls-12" d="m421.81,353.95h-15.26c-.63,0-.94-.76-.49-1.2l7.53-7.35-.66-3.42,5.95-.79.93,4.07,2,8.68Z"/><polygon class="cls-3" points="419.81 345.26 413.59 345.4 412.92 341.98 418.88 341.19 419.81 345.26"/><path class="cls-13" d="m400.67,265.39l.39.33s7.14,12.66,6.77,23.6,1.46,19.31,1.46,19.31l12.51,30.73s-4.62,4.98-9.47,3.52l-15.06-28.67-7.9-23.2s-10.08,13.85-16.28,18.95c0,0,2.6,6.68,4.86,30.98,0,0-8.87,2.07-11.05,1.09l-6.8-33.28,19.92-32.8-2.61-6.64,23.26-3.93Z"/><path class="cls-1" d="m406.53,274.11s-15.91,6.29-27.66,3.03l-11.52-27.63s-2.46-8.38,3.83-12.75c6.29-4.37,15.67-1.09,21.5,11.02,5.83,12.12,13.85,26.33,13.85,26.33Z"/><path class="cls-3" d="m346.44,265.43s-10.1-.45-11.92,0c-1.82.45-3.46,3-3.46,3l2,2.73,5.69-1.76s4.32,2.76,7.24,1.44c2.92-1.32.45-5.41.45-5.41Z"/><path class="cls-12" d="m363.85,221.97s-3.32.36-4.12-3.28c-.8-3.64,1.38-5.83,4.12-4.74,0,0-1.23-4.19,3.03-4.01,4.26.18,5.9,3.46,5.9,3.46,0,0,4.92-2.73,7.11,2.55s-2.55,13.66-2.55,13.66l-3.68,2.65-9.8-10.3Z"/><path class="cls-3" d="m363.37,220.34l-1.28,12.57,4.62.66,2.19,5.47s5.47.36,6.74-3.28l-3.28-5.74s4.37-4.65.18-5.01l-1.82,1.18s-2.1-.64-.73-3.74c1.37-3.1-6.63-2.11-6.63-2.11Z"/><path class="cls-13" d="m381.89,239.04c-6.38-4.42-8.2,1.05-8.2,1.05,0,0-4.2,10.94-5.49,20.42l-21.76,4.91-.45,5.41s24.68,3.46,27.77,1.39c2.74-1.84,9.22-18.9,10.61-22.64h0s3.9-6.12-2.48-10.55Z"/></g><polygon class="cls-13" points="222.28 147.12 218.33 147.12 218.33 143.17 216.19 143.17 216.19 147.12 212.24 147.12 212.24 149.26 216.19 149.26 216.19 153.21 218.33 153.21 218.33 149.26 222.28 149.26 222.28 147.12"/><polygon class="cls-9" points="455.04 133.73 453.42 132.1 449.19 136.34 444.96 132.1 443.34 133.73 447.57 137.96 443.34 142.19 444.96 143.81 449.19 139.58 453.42 143.81 455.04 142.19 450.81 137.96 455.04 133.73"/><polygon class="cls-5" points="397.3 104.09 392.3 104.09 392.3 99.1 389.6 99.1 389.6 104.09 384.61 104.09 384.61 106.79 389.6 106.79 389.6 111.78 392.3 111.78 392.3 106.79 397.3 106.79 397.3 104.09"/><path class="cls-3" d="m162.15,269.12v5.58l-2.15,4.19-.42-8.72s-2.21-1.9-1.27-4.23c.95-2.34,3.84,3.17,3.84,3.17Z"/><path class="cls-2" d="m155.01,224.46c-7.1.42-1.52,7.72-1.52,7.72,0,0,6.04,8.88,12.51,14.82l-7.69,18.95,3.84,3.17s15.51-16.78,15.57-20.18c.05-3.03-11.87-17.93-13.95-20.94h0s-3.75-3.84-8.76-3.54Z"/><path class="cls-4" d="m240,236.11s6.18-8.5,12.6-7.51l3.71,1.61s-.42,2.3-2.72,1.86c-2.3-.44-3.9.37-3.9.37l-3.96,3.85-5.74-.18Z"/><g><path class="cls-12" d="m154.03,344.72l5.68.11c.23.17.53-.12.87-.09l7.2,6.89c.45.41.14,1.1-.49,1.1h-13.66l.41-8.02Z"/><path class="cls-12" d="m129.38,344.72l5.68.11c.23.17.53-.12.87-.09l7.2,6.89c.45.41.14,1.1-.49,1.1h-13.66l.41-8.02Z"/><polygon class="cls-13" points="159.11 260.77 163.19 344.72 153 345.52 149.65 304.97 147.96 281.89 144.11 302.74 137.48 345.24 128.49 345.24 131.7 300.5 134.05 264.36 159.11 260.77"/><path class="cls-12" d="m140.19,215.79l-3.5-.7-2.38-12.44s1.68-7.27,5.87-6.85c4.19.42,9.95-3.18,12.77-1.1,2.43,1.79,2.04,11.86-4.24,12.56l-8.53,8.53Z"/><path class="cls-1" d="m128.21,228s13-5.99,30.9-3v32.29s1.4,4.34.7,5.68c0,0-13.98,7.18-27.83,3.74,0,0-.98-2.84.7-5.83,0,0,.14-24.49-4.47-32.88Z"/><path class="cls-3" d="m140.13,208.41s-1.95-1.19-2.3,0-.53,3.19,1.15,3.08l1.29,3.1-1.34,10.53s4.21,3.46,8.29-.57l.35-7.5,4.07-1.66-1.95-11.76s-3.72,3.38-7.26,0l-.71,6.76-1.42.2-.18-2.19Z"/></g><path class="cls-1" d="m205.65,237.84l20.61,2.14,15.78-7.38,3.7,3.68s-12.93,11-16.19,11.93c-3.26.93-24.21-1.49-24.21-1.49,0,0-4.33-.86-5.11-5.38-.78-4.52,5.42-3.51,5.42-3.51Z"/><g><g><circle class="cls-7" cx="263.16" cy="242.31" r="37.94" transform="translate(-35.08 44.78) rotate(-9.12)"/><circle class="cls-8" cx="258.16" cy="240.95" r="37.94" transform="translate(-26.58 32.08) rotate(-6.76)"/><path class="cls-7" d="m246,270.69c-15.96-6.8-23.7-25.2-17.26-41.42,3.17-7.98,9.25-14.25,17.13-17.65,7.88-3.4,16.61-3.53,24.59-.37,7.98,3.16,14.25,9.25,17.65,17.13,3.4,7.88,3.53,16.61.37,24.59-6.54,16.47-25.25,24.55-41.72,18.01-.25-.1-.5-.2-.75-.31Zm25.07-58.75c-.25-.11-.5-.21-.75-.31-7.88-3.13-16.51-3-24.29.36-7.78,3.36-13.79,9.55-16.92,17.43-6.36,16.02,1.28,34.18,17.05,40.9.25.1.49.21.74.31,16.27,6.46,34.75-1.52,41.21-17.79,3.13-7.88,3-16.51-.36-24.29-3.25-7.53-9.16-13.41-16.68-16.61Z"/><path class="cls-7" d="m247.73,262.51l2.33-5.47c-3.12-1.39-5.95-3.75-7.27-5.92l2.85-3.08c1.4,2.13,3.78,4.36,6.81,5.65,3.85,1.64,7.39.53,8.71-2.56,1.27-2.98-.06-5.72-3.38-9.06-4.6-4.52-6.95-8.47-4.95-13.18,1.92-4.5,6.57-6.55,11.9-5.24l2.33-5.47,3.36,1.43-2.24,5.26c3.2,1.49,5.06,3.31,6.24,4.9l-2.88,3c-.86-1.14-2.57-3.27-6.04-4.75-4.17-1.78-6.81.04-7.73,2.21-1.2,2.82.2,5.08,4.09,9.04,4.61,4.65,6.23,8.67,4.17,13.49-1.82,4.28-6.51,7.02-12.49,5.56l-2.4,5.64-3.41-1.45Z"/></g><g><path class="cls-4" d="m184.13,352.87h13.01s-.66-2.61-3.46-3.16c-1.13-.22-2.05-.83-2.76-1.47-1.05-.95-1.6-1.99-1.6-1.99,0,0,7.27-26.98,10.26-36.16l-6.39-7.18-3.83,3.61s-2.77,25.26-6,39.64c-.33,1.47-.67,2.83-1,4.04-.37,1.33.52,2.67,1.78,2.67Z"/><path class="cls-4" d="m210.97,316.92l4.96,30.03.68,4.09c.18,1.06,1.01,1.84,1.99,1.84h10.17s.25-2.66-3.09-3.34c-.71-.15-1.34-.45-1.88-.87h0c-2.01-1.51-2.94-4.41-2.93-5.69,0-1.64-.99-29.88-.99-29.88l-8.9,3.83Z"/><path class="cls-2" d="m200.24,206.01s10.88.06,11.08,6.6c.2,6.55-5.1,14.63-4.01,17.38s.93,17.92-13.96,19.33c-14.89,1.41-16.98-8.67-12.63-16.25,4.35-7.58,12.48-25.52,19.52-27.07Z"/><path class="cls-1" d="m216.99,259.4l2.16,13.59,3.64,43.93s-15.87,12.17-32.57,5.53c0,0-4.78-3.77-10.87-2.83l14.81-45.79s3.82-13.5,8.14-15.31c7.51-3.15,14.68.88,14.68.88Z"/><path class="cls-2" d="m196.47,245.97l5.83,12.48s8.7,3.23,14.68.83l1.45-12.93s-2.41-3.52-5.13-7.41c-1.77-2.53-7.33-2.97-9.66-.95l-7.18,7.97Z"/><path class="cls-4" d="m234.19,250.6s8.77-5.79,14.44-2.6l2.91,2.81s-1.2,2-3.2.78-3.78-1.03-3.78-1.03l-5.06,2.22-5.31-2.18Z"/><path class="cls-12" d="m215.35,344.84l5.68.11c.23.17.53-.12.88-.09l7.2,6.89c.45.41.14,1.11-.49,1.11h-14.06l.8-8.02Z"/><path class="cls-12" d="m183.33,344.84l5.68.11c.23.17.53-.12.87-.09l7.2,6.89c.45.41.14,1.11-.49,1.11h-14.85l1.6-8.02Z"/><path class="cls-3" d="m211.32,212.61s1.19,2.46,1.68,9.44c.49,6.98-.39,6.46-.39,6.46l-3.46,1.1-1.7,8.06-8.73,1.25s4.76-3.06,4.93-9.31c.17-6.24-3.32-3.24-2.58-7.74s2.91.17,2.91.17c0,0,5.83-1.52,7.33-9.43Z"/><path class="cls-13" d="m205,238.32l14.97,11.08,17.36-1.37,2.17,4.75s-15.97,5.76-19.35,5.49-22.14-9.9-22.14-9.9c0,0-2.81-2.25-2.89-6.83-.08-4.05,2.85-4.84,5.25-4.81,1.67.02,3.29.6,4.64,1.6Z"/></g></g><path class="cls-2" d="m128.21,228s-10.5,19.98-6.2,34.68c0,0,8.46,7.74,29.63-5.37l-1.98-6.61-18.47,3.11s4.08-20.18-2.98-25.81Z"/><path class="cls-3" d="m149.67,250.71s2.85-1.72,6.15-2.28c3.3-.56,0,1.14,0,1.14,0,0,2.9-.97,6.33-1.25,3.42-.28-4.08,6.89-4.08,6.89l-6.67,1.29-1.73-5.79Z"/><polygon class="cls-13" points="327.24 142.1 327.11 142.22 327.11 149.06 269.89 149.06 269.89 158.66 327.11 158.66 327.11 165.5 327.24 165.62 339.79 153.86 327.24 142.1"/><polygon class="cls-13" points="270.63 191.97 270.75 191.85 270.75 185.01 327.97 185.01 327.97 175.41 270.75 175.41 270.75 168.57 270.63 168.45 258.07 180.21 270.63 191.97"/></svg>